# Blender 5.1.0
# www.blender.org
o Cube
v -2.000000 0.000000 2.000000
v -2.000000 2.000000 2.000000
v -2.000000 0.000000 -2.000000
v -2.000000 2.000000 -2.000000
v 2.000000 0.000000 2.000000
v 2.000000 2.000000 2.000000
v 2.000000 0.000000 -2.000000
v 2.000000 2.000000 -2.000000
v 0.000000 3.000000 2.000000
v 0.000000 3.000000 -2.000000
v 2.200000 1.700000 0.400000
v 2.200000 0.500000 0.400000
v 0.500000 1.700000 2.000000
v 0.500000 0.000000 2.000000
v -0.500000 0.000000 2.000000
v 2.200000 1.700000 -0.400000
v 2.200000 0.500000 -0.400000
v -0.500000 1.700000 2.000000
v 0.500000 0.000000 2.200000
v -0.500000 0.000000 2.200000
v 0.500000 1.700000 2.200000
v -0.500000 1.700000 2.200000
v 2.000000 0.500000 -0.400000
v 2.000000 1.700000 -0.400000
v 2.000000 0.500000 0.400000
v 2.000000 1.700000 0.400000
s 0
f 3 2 1
f 7 4 3
f 13 22 18
f 1 7 3
f 6 10 8
f 5 13 6
f 4 9 2
f 6 2 9
f 4 8 10
f 14 21 13
f 26 8 24
f 18 6 13
f 1 18 15
f 23 8 7
f 5 23 7
f 23 16 24
f 25 6 26
f 18 20 15
f 15 19 14
f 25 17 23
f 24 11 26
f 26 12 25
f 3 4 2
f 7 8 4
f 13 21 22
f 1 5 7
f 6 9 10
f 5 14 13
f 4 10 9
f 14 19 21
f 26 6 8
f 18 2 6
f 1 2 18
f 23 24 8
f 5 25 23
f 23 17 16
f 25 5 6
f 18 22 20
f 15 20 19
f 25 12 17
f 24 16 11
f 26 11 12
