# Blender 5.1.0
# www.blender.org
o Cube.023
v 2.993787 2.000000 -2.157526
v 2.993787 0.000000 -2.157526
v 2.700893 0.000000 -5.864633
v 2.700893 2.000000 -5.864633
v -2.700893 2.000000 -5.864633
v -2.700893 0.000000 -5.864633
v -2.993787 0.000000 -2.157526
v -2.993787 2.000000 -2.157526
v -2.495340 0.500000 -2.118145
v -1.498447 0.500000 -2.039382
v 0.000000 0.000000 -6.000000
v 0.000000 2.000000 -6.000000
v 0.707107 0.000000 -5.707107
v 0.707107 2.000000 -5.707107
v 1.000000 0.000000 -2.000000
v 1.000000 2.000000 -2.000000
v 0.707107 0.000000 -1.292893
v 0.707107 2.000000 -1.292893
v 0.000000 0.000000 -1.000000
v 0.000000 2.000000 -1.000000
v -0.707107 0.000000 -1.292893
v -0.707107 2.000000 -1.292893
v -1.000000 0.000000 -2.000000
v -1.000000 2.000000 -2.000000
v -0.707107 0.000000 -5.707107
v -0.707107 2.000000 -5.707107
v -2.495340 1.500000 -2.118145
v -1.498447 1.500000 -2.039382
v -1.459065 1.500000 -2.537828
v -1.459065 0.500000 -2.537828
v -2.455959 1.500000 -2.616591
v -2.455959 0.500000 -2.616591
v 2.495340 1.500000 -2.118145
v 2.495340 0.500000 -2.118145
v 1.498447 1.500000 -2.039382
v 1.498447 0.500000 -2.039382
v 2.455959 1.500000 -2.616591
v 2.455959 0.500000 -2.616591
v 1.459065 1.500000 -2.537828
v 1.459065 0.500000 -2.537828
v 2.896156 2.000000 -3.393229
v 2.798524 2.000000 -4.628931
v 2.798525 0.000000 -4.628931
v 2.896156 0.000000 -3.393229
v -2.798525 2.000000 -4.628931
v -2.896156 2.000000 -3.393229
v -2.896156 0.000000 -3.393229
v -2.798524 0.000000 -4.628931
v 0.902369 2.000000 -3.235702
v 0.804738 2.000000 -4.471405
v -0.804738 2.000000 -4.471404
v -0.902369 2.000000 -3.235702
v 2.896156 1.500000 -3.393229
v 2.798524 1.500000 -4.628931
v -2.798525 1.500000 -4.628931
v -2.896156 1.500000 -3.393229
v 0.902369 1.500000 -3.235702
v 0.804738 1.500000 -4.471405
v -0.804738 1.500000 -4.471404
v -0.902369 1.500000 -3.235702
v 0.707107 3.000000 -1.292893
v 1.000000 3.000000 -2.000000
v 0.000000 3.000000 -1.000000
v -0.707107 3.000000 -1.292893
v -1.000000 3.000000 -2.000000
v -0.902369 3.000000 -3.235702
v 0.902369 3.000000 -3.235702
s 0
f 53 1 2
f 8 28 24
f 26 45 51
f 55 5 6
f 1 34 2
f 29 32 30
f 12 13 11
f 40 37 39
f 24 10 23
f 16 41 49
f 2 36 15
f 7 27 8
f 16 17 15
f 34 40 36
f 23 9 7
f 18 19 17
f 27 29 28
f 9 31 27
f 20 21 19
f 28 30 10
f 16 33 1
f 22 23 21
f 18 63 20
f 14 3 13
f 25 5 26
f 15 35 16
f 10 32 9
f 26 11 25
f 33 38 34
f 35 37 33
f 36 39 35
f 14 12 26
f 50 26 51
f 49 62 16
f 45 59 51
f 50 4 14
f 49 60 52
f 8 56 47
f 52 8 24
f 50 54 42
f 4 54 43
f 57 59 60
f 57 54 58
f 59 56 60
f 41 57 49
f 51 58 50
f 52 56 46
f 56 48 47
f 54 44 43
f 65 63 61
f 20 64 22
f 22 65 24
f 16 61 18
f 67 65 62
f 24 66 52
f 52 67 49
f 2 44 53
f 53 41 1
f 8 27 28
f 26 5 45
f 6 48 55
f 55 45 5
f 1 33 34
f 29 31 32
f 12 14 13
f 40 38 37
f 24 28 10
f 16 1 41
f 2 34 36
f 7 9 27
f 16 18 17
f 34 38 40
f 23 10 9
f 18 20 19
f 27 31 29
f 9 32 31
f 20 22 21
f 28 29 30
f 16 35 33
f 22 24 23
f 18 61 63
f 14 4 3
f 25 6 5
f 15 36 35
f 10 30 32
f 26 12 11
f 33 37 38
f 35 39 37
f 36 40 39
f 50 14 26
f 49 67 62
f 45 55 59
f 50 42 4
f 49 57 60
f 47 7 8
f 8 46 56
f 52 46 8
f 50 58 54
f 43 3 4
f 4 42 54
f 57 58 59
f 57 53 54
f 59 55 56
f 41 53 57
f 51 59 58
f 52 60 56
f 56 55 48
f 54 53 44
f 61 62 65
f 65 64 63
f 20 63 64
f 22 64 65
f 16 62 61
f 67 66 65
f 24 65 66
f 52 66 67
