# Blender 5.1.0
# www.blender.org
o Suzanne
v 0.000000 0.429688 0.742188
v 0.062500 0.492188 0.750000
v 0.000000 0.351562 0.820312
v -0.062500 0.492188 0.750000
v 0.000000 0.406250 0.601562
v 0.109375 0.460938 0.609375
v -0.109375 0.460938 0.609375
v 0.000000 0.570312 0.570312
v 0.000000 0.898438 0.289062
v 0.460938 0.523438 0.429688
v -0.460938 0.523438 0.429688
v -0.632812 0.453125 0.281250
v -0.453125 0.851562 0.234375
v -0.484375 0.554688 0.554688
v -0.335938 0.687500 0.593750
v -0.492188 0.601562 0.687500
v -0.679688 0.453125 0.492188
v -0.710938 0.484375 0.625000
v -0.796875 0.406250 0.460938
v -0.859375 0.429688 0.593750
v -0.773438 0.164062 0.375000
v -0.726562 0.406250 0.335938
v -0.796875 0.562500 0.125000
v -0.851562 0.234375 0.054688
v -0.734375 -0.046875 0.070312
v -0.859375 0.320312 -0.046875
v -0.820312 0.328125 -0.203125
v -0.726562 0.000000 -0.070312
v -0.796875 0.203125 -0.210938
v -0.718750 0.039062 -0.187500
v -0.835938 0.171875 -0.273438
v -0.843750 0.289062 -0.210938
v -0.921875 0.359375 -0.218750
v -0.890625 0.242188 -0.265625
v -0.945312 0.304688 -0.289062
v -0.890625 0.234375 -0.320312
v -0.953125 0.289062 -0.343750
v -0.843750 0.171875 -0.320312
v -0.960938 0.171875 -0.351562
v -1.000000 0.125000 -0.367188
v -0.890625 0.109375 -0.328125
v -1.015625 0.234375 -0.375000
v -1.054688 0.187500 -0.382812
v -1.085938 0.273438 -0.390625
v -1.109375 0.210938 -0.390625
v -1.039062 0.328125 -0.414062
v -1.187500 0.343750 -0.484375
v -1.171875 0.359375 -0.437500
v -1.257812 0.242188 -0.492188
v -1.234375 0.250000 -0.445312
v -1.210938 0.085938 -0.484375
v -1.187500 0.093750 -0.445312
v -1.046875 0.000000 -0.421875
v -1.039062 0.000000 -0.367188
v -0.882812 -0.015625 -0.265625
v -0.812500 -0.015625 -0.320312
v -0.882812 -0.023438 -0.210938
v -0.937500 0.062500 -0.335938
v -0.851562 0.015625 -0.320312
v -0.828125 0.078125 -0.320312
v -0.843750 0.015625 -0.273438
v -0.812500 -0.015625 -0.273438
v -0.820312 0.085938 -0.273438
v -0.757812 0.093750 -0.273438
v -0.765625 0.093750 -0.320312
v -0.718750 -0.023438 -0.171875
v -0.593750 -0.125000 -0.164062
v -0.828125 -0.070312 -0.132812
v -0.773438 -0.140625 -0.125000
v -1.031250 -0.039062 -0.304688
v -1.039062 -0.101562 -0.328125
v -1.210938 0.078125 -0.406250
v -1.281250 0.054688 -0.429688
v -1.265625 0.289062 -0.406250
v -1.351562 0.320312 -0.421875
v -1.187500 0.437500 -0.390625
v -1.234375 0.507812 -0.421875
v -1.015625 0.414062 -0.289062
v -1.023438 0.476562 -0.312500
v -1.023438 0.343750 -0.359375
v -0.890625 0.406250 -0.234375
v -1.023438 0.437500 -0.484375
v -1.250000 0.468750 -0.546875
v -0.859375 0.382812 -0.382812
v -1.039062 -0.085938 -0.492188
v -0.789062 -0.125000 -0.328125
v -1.312500 0.054688 -0.531250
v -1.367188 0.296875 -0.500000
v -0.640625 -0.007812 -0.429688
v -0.484375 0.023438 -0.546875
v -0.773438 0.265625 -0.437500
v -0.617188 0.328125 -0.585938
v -0.796875 0.539062 -0.359375
v -0.640625 0.679688 -0.445312
v -0.796875 0.617188 -0.117188
v -0.640625 0.750000 -0.195312
v -0.640625 0.703125 0.054688
v -0.453125 0.929688 -0.070312
v 0.000000 0.984375 -0.078125
v -0.453125 0.867188 -0.382812
v 0.000000 0.898438 -0.546875
v -0.460938 0.437500 -0.703125
v -0.335938 0.054688 -0.664062
v 0.000000 0.562500 -0.851562
v 0.000000 0.070312 -0.828125
v 0.460938 0.437500 -0.703125
v 0.335938 0.054688 -0.664062
v 0.453125 0.867188 -0.382812
v 0.617188 0.328125 -0.585938
v 0.773438 0.265625 -0.437500
v 0.640625 0.679688 -0.445312
v 0.484375 0.023438 -0.546875
v 0.640625 -0.007812 -0.429688
v 0.429688 -0.195312 -0.210938
v 0.343750 -0.148438 -0.539062
v 0.000000 -0.195312 -0.671875
v 0.296875 -0.312500 -0.265625
v 0.000000 -0.382812 -0.351562
v 0.210938 -0.390625 0.164062
v 0.000000 -0.460938 0.187500
v 0.179688 -0.414062 0.257812
v 0.218750 -0.281250 0.429688
v 0.406250 -0.171875 0.148438
v 0.734375 -0.046875 0.070312
v 0.437500 -0.093750 0.468750
v 0.437500 -0.140625 0.531250
v 0.601562 0.000000 0.414062
v 0.203125 -0.171875 0.500000
v 0.210938 -0.226562 0.468750
v 0.234375 -0.250000 0.554688
v 0.257812 -0.312500 0.554688
v 0.164062 -0.242188 0.710938
v 0.203125 -0.187500 0.562500
v 0.125000 -0.101562 0.812500
v 0.398438 -0.046875 0.671875
v 0.203125 0.093750 0.742188
v 0.000000 0.046875 0.726562
v 0.101562 -0.148438 0.742188
v 0.125000 -0.226562 0.750000
v 0.109375 -0.132812 0.781250
v 0.000000 -0.140625 0.742188
v 0.039062 -0.125000 0.781250
v -0.039062 -0.125000 0.781250
v -0.101562 -0.148438 0.742188
v 0.000000 -0.195312 0.750000
v 0.000000 -0.187500 0.796875
v 0.000000 -0.203125 0.828125
v 0.046875 -0.148438 0.812500
v -0.046875 -0.148438 0.812500
v 0.109375 -0.226562 0.828125
v -0.109375 -0.226562 0.828125
v 0.000000 -0.289062 0.804688
v 0.000000 -0.320312 0.781250
v 0.078125 -0.250000 0.804688
v -0.078125 -0.250000 0.804688
v -0.093750 -0.273438 0.781250
v -0.085938 -0.289062 0.742188
v -0.132812 -0.226562 0.796875
v -0.125000 -0.226562 0.750000
v -0.109375 -0.132812 0.781250
v -0.093750 -0.156250 0.812500
v -0.164062 -0.242188 0.710938
v -0.125000 -0.101562 0.812500
v -0.179688 -0.312500 0.710938
v -0.234375 -0.250000 0.554688
v -0.257812 -0.312500 0.554688
v -0.203125 -0.187500 0.562500
v -0.210938 -0.226562 0.468750
v -0.218750 -0.281250 0.429688
v -0.203125 -0.171875 0.500000
v -0.437500 -0.093750 0.468750
v -0.601562 0.000000 0.414062
v -0.437500 -0.140625 0.531250
v -0.406250 -0.171875 0.148438
v -0.429688 -0.195312 -0.210938
v -0.210938 -0.390625 0.164062
v -0.296875 -0.312500 -0.265625
v -0.179688 -0.414062 0.257812
v -0.125000 -0.539062 0.359375
v 0.000000 -0.484375 0.281250
v -0.234375 -0.351562 0.406250
v -0.250000 -0.500000 0.390625
v -0.312500 -0.437500 0.570312
v -0.210938 -0.445312 0.710938
v -0.351562 -0.695312 0.570312
v -0.250000 -0.703125 0.687500
v -0.367188 -0.890625 0.531250
v -0.265625 -0.820312 0.664062
v -0.328125 -0.945312 0.523438
v -0.289062 -0.710938 0.382812
v -0.328125 -0.914062 0.398438
v -0.140625 -0.757812 0.367188
v 0.000000 -0.804688 0.343750
v -0.164062 -0.945312 0.437500
v 0.000000 -0.976562 0.460938
v -0.179688 -0.968750 0.554688
v -0.164062 -0.929688 0.632812
v 0.000000 -0.984375 0.578125
v 0.179688 -0.968750 0.554688
v 0.000000 -0.945312 0.640625
v 0.164062 -0.929688 0.632812
v 0.000000 -0.890625 0.687500
v 0.062500 -0.882812 0.695312
v -0.062500 -0.882812 0.695312
v 0.000000 -0.875000 0.687500
v 0.046875 -0.867188 0.687500
v -0.046875 -0.867188 0.687500
v 0.000000 -0.859375 0.632812
v 0.046875 -0.851562 0.632812
v -0.046875 -0.851562 0.632812
v 0.000000 -0.781250 0.656250
v 0.000000 -0.773438 0.718750
v 0.093750 -0.750000 0.664062
v -0.093750 -0.750000 0.664062
v -0.093750 -0.812500 0.640625
v -0.093750 -0.742188 0.726562
v -0.109375 -0.718750 0.734375
v -0.093750 -0.820312 0.710938
v -0.117188 -0.835938 0.710938
v -0.234375 -0.914062 0.632812
v -0.117188 -0.687500 0.734375
v 0.000000 -0.765625 0.734375
v 0.000000 -0.679688 0.734375
v 0.109375 -0.718750 0.734375
v 0.265625 -0.820312 0.664062
v 0.117188 -0.835938 0.710938
v 0.117188 -0.687500 0.734375
v 0.093750 -0.742188 0.726562
v 0.093750 -0.820312 0.710938
v 0.093750 -0.812500 0.640625
v 0.078125 -0.445312 0.750000
v 0.250000 -0.703125 0.687500
v 0.351562 -0.695312 0.570312
v 0.210938 -0.445312 0.710938
v 0.312500 -0.437500 0.570312
v 0.179688 -0.312500 0.710938
v 0.085938 -0.289062 0.742188
v 0.000000 -0.328125 0.742188
v 0.093750 -0.273438 0.781250
v 0.132812 -0.226562 0.796875
v 0.000000 -0.445312 0.750000
v -0.078125 -0.445312 0.750000
v 0.234375 -0.351562 0.406250
v 0.250000 -0.500000 0.390625
v 0.289062 -0.710938 0.382812
v 0.125000 -0.539062 0.359375
v 0.000000 -0.570312 0.320312
v 0.140625 -0.757812 0.367188
v 0.164062 -0.945312 0.437500
v 0.328125 -0.914062 0.398438
v 0.328125 -0.945312 0.523438
v 0.234375 -0.914062 0.632812
v 0.367188 -0.890625 0.531250
v -0.343750 -0.148438 -0.539062
v -0.398438 -0.046875 0.671875
v -0.632812 -0.039062 0.539062
v -0.617188 0.054688 0.625000
v -0.828125 0.148438 0.445312
v -0.726562 0.203125 0.601562
v -0.742188 0.375000 0.656250
v -0.625000 0.187500 0.648438
v -0.640625 0.296875 0.648438
v -0.492188 0.062500 0.671875
v -0.578125 0.195312 0.679688
v -0.476562 0.101562 0.718750
v -0.585938 0.289062 0.687500
v -0.546875 0.210938 0.671875
v -0.554688 0.281250 0.671875
v -0.460938 0.117188 0.703125
v -0.375000 0.085938 0.726562
v -0.375000 0.062500 0.742188
v -0.242188 0.125000 0.757812
v -0.226562 0.109375 0.781250
v -0.203125 0.171875 0.750000
v -0.187500 0.156250 0.773438
v -0.195312 0.226562 0.750000
v -0.195312 0.296875 0.757812
v -0.171875 0.218750 0.781250
v -0.132812 0.210938 0.757812
v -0.179688 0.296875 0.781250
v -0.125000 0.304688 0.765625
v -0.210938 0.375000 0.781250
v -0.164062 0.414062 0.773438
v -0.273438 0.421875 0.773438
v -0.234375 0.359375 0.757812
v -0.281250 0.398438 0.765625
v -0.335938 0.406250 0.750000
v -0.335938 0.429688 0.757812
v -0.414062 0.390625 0.750000
v -0.421875 0.398438 0.773438
v -0.531250 0.335938 0.679688
v -0.562500 0.351562 0.695312
v -0.601562 0.375000 0.664062
v -0.687500 0.414062 0.726562
v -0.429688 0.437500 0.718750
v -0.437500 0.546875 0.796875
v -0.328125 0.476562 0.742188
v -0.312500 0.640625 0.835938
v -0.250000 0.468750 0.757812
v -0.203125 0.617188 0.851562
v -0.156250 0.718750 0.757812
v -0.101562 0.429688 0.843750
v -0.320312 0.757812 0.734375
v -0.195312 0.664062 0.617188
v 0.000000 0.210938 0.765625
v -0.164062 0.140625 0.750000
v -0.203125 0.093750 0.742188
v -0.375000 0.015625 0.703125
v 0.132812 0.210938 0.757812
v 0.125000 0.304688 0.765625
v 0.164062 0.140625 0.750000
v 0.171875 0.218750 0.781250
v 0.187500 0.156250 0.773438
v 0.179688 0.296875 0.781250
v 0.195312 0.226562 0.750000
v 0.195312 0.296875 0.757812
v 0.203125 0.171875 0.750000
v 0.242188 0.125000 0.757812
v 0.226562 0.109375 0.781250
v 0.375000 0.085938 0.726562
v 0.375000 0.062500 0.742188
v 0.460938 0.117188 0.703125
v 0.476562 0.101562 0.718750
v 0.546875 0.210938 0.671875
v 0.578125 0.195312 0.679688
v 0.554688 0.281250 0.671875
v 0.585938 0.289062 0.687500
v 0.531250 0.335938 0.679688
v 0.562500 0.351562 0.695312
v 0.414062 0.390625 0.750000
v 0.421875 0.398438 0.773438
v 0.335938 0.406250 0.750000
v 0.335938 0.429688 0.757812
v 0.281250 0.398438 0.765625
v 0.273438 0.421875 0.773438
v 0.234375 0.359375 0.757812
v 0.210938 0.375000 0.781250
v 0.164062 0.414062 0.773438
v 0.101562 0.429688 0.843750
v 0.250000 0.468750 0.757812
v 0.203125 0.617188 0.851562
v 0.328125 0.476562 0.742188
v 0.312500 0.640625 0.835938
v 0.429688 0.437500 0.718750
v 0.437500 0.546875 0.796875
v 0.601562 0.375000 0.664062
v 0.687500 0.414062 0.726562
v 0.640625 0.296875 0.648438
v 0.742188 0.375000 0.656250
v 0.625000 0.187500 0.648438
v 0.726562 0.203125 0.601562
v 0.492188 0.062500 0.671875
v 0.617188 0.054688 0.625000
v 0.375000 0.015625 0.703125
v 0.632812 -0.039062 0.539062
v 0.828125 0.148438 0.445312
v 0.859375 0.429688 0.593750
v 0.773438 0.164062 0.375000
v 0.796875 0.406250 0.460938
v 0.851562 0.234375 0.054688
v 0.726562 0.406250 0.335938
v 0.859375 0.320312 -0.046875
v 0.796875 0.562500 0.125000
v 0.820312 0.328125 -0.203125
v 0.726562 0.000000 -0.070312
v 0.796875 0.203125 -0.210938
v 0.835938 0.171875 -0.273438
v 0.718750 0.039062 -0.187500
v 0.843750 0.289062 -0.210938
v 0.921875 0.359375 -0.218750
v 0.890625 0.242188 -0.265625
v 0.945312 0.304688 -0.289062
v 0.890625 0.234375 -0.320312
v 0.953125 0.289062 -0.343750
v 0.843750 0.171875 -0.320312
v 0.960938 0.171875 -0.351562
v 0.890625 0.109375 -0.328125
v 1.000000 0.125000 -0.367188
v 1.015625 0.234375 -0.375000
v 1.054688 0.187500 -0.382812
v 1.085938 0.273438 -0.390625
v 1.109375 0.210938 -0.390625
v 1.039062 0.328125 -0.414062
v 1.187500 0.343750 -0.484375
v 1.171875 0.359375 -0.437500
v 1.257812 0.242188 -0.492188
v 1.234375 0.250000 -0.445312
v 1.210938 0.085938 -0.484375
v 1.187500 0.093750 -0.445312
v 1.046875 0.000000 -0.421875
v 1.039062 0.000000 -0.367188
v 0.882812 -0.015625 -0.265625
v 0.882812 -0.023438 -0.210938
v 0.812500 -0.015625 -0.320312
v 0.937500 0.062500 -0.335938
v 0.851562 0.015625 -0.320312
v 0.843750 0.015625 -0.273438
v 0.828125 0.078125 -0.320312
v 0.820312 0.085938 -0.273438
v 0.765625 0.093750 -0.320312
v 0.757812 0.093750 -0.273438
v 0.812500 -0.015625 -0.273438
v 0.718750 -0.023438 -0.171875
v 0.593750 -0.125000 -0.164062
v 0.828125 -0.070312 -0.132812
v 1.031250 -0.039062 -0.304688
v 0.773438 -0.140625 -0.125000
v 1.039062 -0.101562 -0.328125
v 0.789062 -0.125000 -0.328125
v 1.039062 -0.085938 -0.492188
v 0.859375 0.382812 -0.382812
v 0.890625 0.406250 -0.234375
v 1.023438 0.437500 -0.484375
v 1.023438 0.476562 -0.312500
v 1.250000 0.468750 -0.546875
v 1.234375 0.507812 -0.421875
v 1.367188 0.296875 -0.500000
v 1.312500 0.054688 -0.531250
v 1.281250 0.054688 -0.429688
v 1.351562 0.320312 -0.421875
v 1.210938 0.078125 -0.406250
v 1.265625 0.289062 -0.406250
v 1.187500 0.437500 -0.390625
v 1.015625 0.414062 -0.289062
v 1.023438 0.343750 -0.359375
v 0.796875 0.617188 -0.117188
v 0.640625 0.750000 -0.195312
v 0.796875 0.539062 -0.359375
v 0.640625 0.703125 0.054688
v 0.453125 0.929688 -0.070312
v 0.453125 0.851562 0.234375
v 0.632812 0.453125 0.281250
v 0.679688 0.453125 0.492188
v 0.710938 0.484375 0.625000
v 0.484375 0.554688 0.554688
v 0.492188 0.601562 0.687500
v 0.335938 0.687500 0.593750
v 0.320312 0.757812 0.734375
v 0.195312 0.664062 0.617188
v 0.156250 0.718750 0.757812
v 0.093750 -0.156250 0.812500
s 0
f 1 6 5
f 1 339 2
f 1 302 3
f 7 1 5
f 5 6 8
f 8 7 5
f 11 9 13
f 10 9 8
f 6 10 8
f 11 7 8
f 17 11 12
f 12 13 97
f 15 7 14
f 16 15 14
f 18 14 17
f 19 18 17
f 22 17 12
f 258 19 21
f 21 22 24
f 23 12 97
f 23 24 22
f 28 24 26
f 25 21 24
f 95 26 23
f 32 26 27
f 28 29 30
f 29 64 30
f 29 34 31
f 32 35 34
f 33 27 81
f 31 36 38
f 36 35 37
f 39 37 42
f 38 39 41
f 43 39 42
f 58 39 40
f 43 44 45
f 42 46 44
f 45 47 49
f 47 44 46
f 46 48 47
f 47 50 49
f 50 51 49
f 45 51 43
f 52 53 51
f 43 53 40
f 54 55 53
f 58 53 55
f 55 59 58
f 55 62 56
f 59 41 58
f 61 60 59
f 56 61 59
f 61 64 63
f 30 62 66
f 63 65 60
f 65 31 38
f 38 60 65
f 62 68 66
f 30 66 28
f 67 28 66
f 69 66 68
f 68 71 69
f 57 70 68
f 72 71 70
f 54 72 70
f 74 73 72
f 50 72 52
f 76 75 74
f 48 74 50
f 76 79 77
f 80 76 48
f 35 78 80
f 81 78 33
f 37 80 46
f 79 84 82
f 77 82 83
f 87 82 85
f 85 84 86
f 86 71 85
f 85 73 87
f 73 88 87
f 87 88 83
f 75 83 88
f 86 67 69
f 86 91 89
f 175 89 90
f 89 92 90
f 92 93 94
f 93 27 95
f 27 84 81
f 93 96 94
f 95 97 96
f 97 98 96
f 96 100 94
f 100 99 101
f 13 99 98
f 102 101 104
f 94 102 92
f 92 103 90
f 102 105 103
f 106 105 104
f 101 106 104
f 109 107 106
f 106 111 109
f 113 109 110
f 109 428 110
f 114 113 404
f 107 112 115
f 115 114 117
f 107 116 105
f 115 118 116
f 118 119 120
f 117 123 119
f 120 121 180
f 121 122 243
f 122 119 123
f 123 404 124
f 127 123 124
f 125 122 123
f 128 126 133
f 355 125 127
f 125 128 129
f 122 130 131
f 130 128 133
f 130 236 131
f 133 132 130
f 133 135 134
f 134 354 136
f 136 137 134
f 141 134 137
f 138 132 134
f 138 240 139
f 142 138 141
f 146 141 145
f 146 141 143
f 143 144 160
f 163 141 137
f 146 148 142
f 149 146 143
f 150 148 147
f 151 149 161
f 147 154 150
f 155 147 151
f 156 152 155
f 239 152 153
f 155 158 156
f 157 153 156
f 156 159 157
f 158 144 159
f 161 158 151
f 161 143 160
f 157 162 164
f 162 144 163
f 162 167 165
f 165 164 162
f 169 165 168
f 165 170 168
f 169 171 174
f 168 170 171
f 174 172 25
f 171 256 172
f 170 173 171
f 174 67 175
f 177 174 175
f 174 176 169
f 178 120 180
f 176 118 120
f 178 169 176
f 182 178 179
f 180 179 178
f 182 183 181
f 181 166 169
f 166 184 164
f 186 183 185
f 188 185 187
f 190 185 182
f 220 187 189
f 191 187 190
f 191 192 194
f 179 190 182
f 247 192 179
f 193 194 192
f 195 196 194
f 194 189 191
f 220 196 197
f 197 198 200
f 199 195 249
f 201 198 199
f 203 200 201
f 200 204 197
f 202 206 205
f 207 202 205
f 206 208 205
f 207 208 210
f 211 209 213
f 210 211 214
f 212 214 211
f 212 213 228
f 215 210 214
f 214 218 215
f 222 216 212
f 216 219 218
f 218 204 207
f 215 207 210
f 197 219 220
f 219 188 220
f 186 217 221
f 217 223 221
f 224 223 222
f 222 228 224
f 224 232 227
f 226 225 224
f 226 228 229
f 229 213 230
f 203 229 206
f 206 230 209
f 213 209 230
f 231 223 227
f 234 227 232
f 235 232 233
f 233 225 253
f 131 234 235
f 231 236 237
f 237 132 139
f 238 231 237
f 237 153 238
f 139 239 237
f 240 154 239
f 441 240 140
f 238 242 241
f 242 223 241
f 221 184 186
f 242 164 184
f 235 244 243
f 243 131 235
f 244 121 243
f 233 245 244
f 245 246 244
f 247 248 193
f 180 246 247
f 193 249 195
f 250 248 245
f 251 249 250
f 253 250 245
f 252 199 251
f 253 252 251
f 226 201 252
f 254 118 177
f 254 175 90
f 103 116 254
f 254 90 103
f 256 255 257
f 255 167 163
f 259 256 257
f 172 258 21
f 20 259 260
f 257 261 259
f 259 262 260
f 266 261 264
f 264 263 265
f 267 265 269
f 266 267 268
f 265 270 269
f 271 272 270
f 272 275 274
f 274 278 276
f 276 280 277
f 275 279 278
f 278 281 280
f 281 282 280
f 277 282 285
f 282 299 284
f 282 286 285
f 286 288 287
f 288 289 287
f 290 291 289
f 291 266 268
f 293 266 292
f 295 292 290
f 260 293 294
f 294 295 296
f 296 297 298
f 288 295 290
f 298 299 300
f 284 297 288
f 299 302 300
f 301 298 300
f 4 300 302
f 302 281 3
f 303 304 15
f 304 4 7
f 298 16 296
f 16 294 296
f 18 260 294
f 305 281 279
f 306 305 279
f 137 307 163
f 307 275 273
f 163 308 255
f 271 307 273
f 255 263 257
f 265 308 271
f 310 305 309
f 311 305 137
f 310 312 314
f 309 313 312
f 312 317 315
f 314 315 316
f 313 318 317
f 321 318 319
f 323 320 321
f 323 324 322
f 327 324 325
f 327 328 326
f 331 328 329
f 333 330 331
f 333 334 332
f 337 334 335
f 337 316 336
f 340 337 335
f 310 337 338
f 339 310 338
f 340 339 338
f 340 343 341
f 342 335 333
f 345 342 344
f 344 333 331
f 347 344 346
f 344 329 346
f 349 346 348
f 346 327 348
f 351 348 350
f 350 327 325
f 353 350 352
f 352 325 323
f 135 352 354
f 354 323 321
f 136 321 319
f 355 351 353
f 355 135 126
f 356 127 358
f 357 351 356
f 356 359 357
f 358 361 359
f 358 124 360
f 360 365 362
f 360 363 361
f 362 426 363
f 362 369 364
f 365 366 362
f 366 371 369
f 366 401 367
f 364 370 412
f 369 372 370
f 367 373 371
f 372 373 374
f 376 374 373
f 375 376 373
f 395 376 377
f 376 380 379
f 380 381 379
f 383 379 381
f 384 382 386
f 383 381 384
f 387 384 386
f 385 383 384
f 387 388 389
f 382 388 386
f 389 390 391
f 380 390 388
f 391 392 393
f 390 395 392
f 402 392 394
f 392 396 394
f 396 377 398
f 397 394 396
f 397 398 399
f 399 400 401
f 398 375 400
f 367 400 375
f 401 397 399
f 368 402 397
f 405 402 403
f 407 403 404
f 404 365 124
f 365 403 368
f 406 393 405
f 408 405 407
f 408 409 410
f 404 409 407
f 410 411 413
f 110 409 113
f 364 411 110
f 414 411 412
f 416 413 414
f 413 418 410
f 420 415 416
f 415 417 418
f 419 417 420
f 419 410 418
f 422 419 420
f 421 408 419
f 387 421 422
f 421 391 406
f 385 422 423
f 423 420 416
f 425 423 424
f 414 423 416
f 412 424 414
f 424 372 425
f 425 374 383
f 428 364 110
f 429 426 427
f 427 428 111
f 430 429 427
f 108 427 111
f 431 99 9
f 99 108 101
f 431 432 429
f 432 363 429
f 433 10 435
f 433 361 432
f 434 359 433
f 434 435 436
f 436 437 438
f 6 437 435
f 438 439 440
f 2 439 6
f 440 343 438
f 2 341 440
f 436 343 345
f 436 347 434
f 434 349 357
f 136 313 311
f 142 441 140
f 269 276 287
f 317 324 332
f 1 2 6
f 1 3 339
f 1 4 302
f 7 4 1
f 11 8 9
f 10 431 9
f 6 435 10
f 11 14 7
f 17 14 11
f 12 11 13
f 15 304 7
f 16 303 15
f 18 16 14
f 19 20 18
f 22 19 17
f 258 20 19
f 21 19 22
f 23 22 12
f 23 26 24
f 28 25 24
f 25 172 21
f 95 27 26
f 32 29 26
f 28 26 29
f 29 31 64
f 29 32 34
f 32 33 35
f 33 32 27
f 31 34 36
f 36 34 35
f 39 36 37
f 38 36 39
f 43 40 39
f 58 41 39
f 43 42 44
f 42 37 46
f 45 44 47
f 46 80 48
f 47 48 50
f 50 52 51
f 45 49 51
f 52 54 53
f 43 51 53
f 54 57 55
f 58 40 53
f 55 56 59
f 55 57 62
f 59 60 41
f 61 63 60
f 56 62 61
f 61 30 64
f 30 61 62
f 63 64 65
f 65 64 31
f 38 41 60
f 62 57 68
f 67 25 28
f 69 67 66
f 68 70 71
f 57 54 70
f 72 73 71
f 54 52 72
f 74 75 73
f 50 74 72
f 76 77 75
f 48 76 74
f 76 78 79
f 80 78 76
f 35 33 78
f 81 79 78
f 37 35 80
f 79 81 84
f 77 79 82
f 87 83 82
f 85 82 84
f 86 69 71
f 85 71 73
f 73 75 88
f 75 77 83
f 86 89 67
f 86 84 91
f 175 67 89
f 89 91 92
f 92 91 93
f 93 91 27
f 27 91 84
f 93 95 96
f 95 23 97
f 97 13 98
f 96 98 100
f 100 98 99
f 13 9 99
f 102 100 101
f 94 100 102
f 92 102 103
f 102 104 105
f 106 107 105
f 101 108 106
f 109 112 107
f 106 108 111
f 113 112 109
f 109 111 428
f 114 112 113
f 115 112 114
f 107 115 116
f 115 117 118
f 118 117 119
f 117 114 123
f 120 119 121
f 121 119 122
f 123 114 404
f 127 125 123
f 125 129 122
f 128 125 126
f 355 126 125
f 122 129 130
f 130 129 128
f 130 132 236
f 133 134 132
f 133 126 135
f 134 135 354
f 136 311 137
f 141 138 134
f 138 139 132
f 138 140 240
f 142 140 138
f 146 142 141
f 143 141 144
f 163 144 141
f 146 147 148
f 149 147 146
f 150 441 148
f 151 147 149
f 147 152 154
f 155 152 147
f 156 153 152
f 239 154 152
f 155 151 158
f 157 238 153
f 156 158 159
f 158 160 144
f 161 160 158
f 161 149 143
f 157 159 162
f 162 159 144
f 162 163 167
f 165 166 164
f 169 166 165
f 165 167 170
f 169 168 171
f 174 171 172
f 171 173 256
f 170 167 173
f 174 25 67
f 177 176 174
f 178 176 120
f 176 177 118
f 178 181 169
f 182 181 178
f 180 247 179
f 182 185 183
f 181 183 166
f 166 183 184
f 186 184 183
f 188 186 185
f 190 187 185
f 220 188 187
f 191 189 187
f 191 190 192
f 179 192 190
f 247 193 192
f 193 195 194
f 195 198 196
f 194 196 189
f 220 189 196
f 197 196 198
f 199 198 195
f 201 200 198
f 203 202 200
f 200 202 204
f 202 203 206
f 207 204 202
f 206 209 208
f 207 205 208
f 211 208 209
f 210 208 211
f 212 216 214
f 212 211 213
f 214 216 218
f 222 217 216
f 216 217 219
f 218 219 204
f 215 218 207
f 197 204 219
f 219 217 188
f 186 188 217
f 217 222 223
f 224 227 223
f 222 212 228
f 224 225 232
f 226 252 225
f 226 224 228
f 229 228 213
f 203 226 229
f 206 229 230
f 231 241 223
f 234 231 227
f 235 234 232
f 233 232 225
f 131 236 234
f 231 234 236
f 237 236 132
f 238 241 231
f 237 239 153
f 139 240 239
f 240 150 154
f 441 150 240
f 238 157 242
f 242 221 223
f 221 242 184
f 242 157 164
f 235 233 244
f 243 122 131
f 244 246 121
f 233 253 245
f 245 248 246
f 247 246 248
f 180 121 246
f 193 248 249
f 250 249 248
f 251 199 249
f 253 251 250
f 252 201 199
f 253 225 252
f 226 203 201
f 254 116 118
f 254 177 175
f 103 105 116
f 256 173 255
f 255 173 167
f 259 258 256
f 172 256 258
f 20 258 259
f 257 263 261
f 259 261 262
f 266 262 261
f 264 261 263
f 267 264 265
f 266 264 267
f 265 271 270
f 271 273 272
f 272 273 275
f 274 275 278
f 276 278 280
f 275 306 279
f 278 279 281
f 281 283 282
f 277 280 282
f 282 283 299
f 282 284 286
f 286 284 288
f 288 290 289
f 290 292 291
f 291 292 266
f 293 262 266
f 295 293 292
f 260 262 293
f 294 293 295
f 296 295 297
f 288 297 295
f 298 297 299
f 284 299 297
f 299 283 302
f 301 303 298
f 4 301 300
f 302 283 281
f 303 301 304
f 304 301 4
f 298 303 16
f 16 18 294
f 18 20 260
f 305 3 281
f 306 137 305
f 137 306 307
f 307 306 275
f 163 307 308
f 271 308 307
f 255 308 263
f 265 263 308
f 310 3 305
f 311 309 305
f 310 309 312
f 309 311 313
f 312 313 317
f 314 312 315
f 313 319 318
f 321 320 318
f 323 322 320
f 323 325 324
f 327 326 324
f 327 329 328
f 331 330 328
f 333 332 330
f 333 335 334
f 337 336 334
f 337 314 316
f 340 338 337
f 310 314 337
f 339 3 310
f 340 341 339
f 340 342 343
f 342 340 335
f 345 343 342
f 344 342 333
f 347 345 344
f 344 331 329
f 349 347 346
f 346 329 327
f 351 349 348
f 350 348 327
f 353 351 350
f 352 350 325
f 135 353 352
f 354 352 323
f 136 354 321
f 355 356 351
f 355 353 135
f 356 355 127
f 357 349 351
f 356 358 359
f 358 360 361
f 358 127 124
f 360 124 365
f 360 362 363
f 362 364 426
f 362 366 369
f 365 368 366
f 366 367 371
f 366 368 401
f 364 369 370
f 369 371 372
f 367 375 373
f 372 371 373
f 376 379 374
f 375 377 376
f 395 378 376
f 376 378 380
f 380 382 381
f 383 374 379
f 384 381 382
f 387 385 384
f 385 425 383
f 387 386 388
f 382 380 388
f 389 388 390
f 380 378 390
f 391 390 392
f 390 378 395
f 402 393 392
f 392 395 396
f 396 395 377
f 397 402 394
f 397 396 398
f 399 398 400
f 398 377 375
f 367 401 400
f 401 368 397
f 368 403 402
f 405 393 402
f 407 405 403
f 404 403 365
f 406 391 393
f 408 406 405
f 408 407 409
f 404 113 409
f 410 409 411
f 110 411 409
f 364 412 411
f 414 413 411
f 416 415 413
f 413 415 418
f 420 417 415
f 419 418 417
f 419 408 410
f 422 421 419
f 421 406 408
f 387 389 421
f 421 389 391
f 385 387 422
f 423 422 420
f 425 385 423
f 414 424 423
f 412 370 424
f 424 370 372
f 425 372 374
f 428 426 364
f 429 363 426
f 427 426 428
f 430 431 429
f 108 430 427
f 431 430 99
f 99 430 108
f 431 10 432
f 432 361 363
f 433 432 10
f 433 359 361
f 434 357 359
f 434 433 435
f 436 435 437
f 6 439 437
f 438 437 439
f 2 440 439
f 440 341 343
f 2 339 341
f 436 438 343
f 436 345 347
f 434 347 349
f 136 319 313
f 142 148 441
f 268 267 269
f 269 270 272
f 272 274 276
f 276 277 285
f 285 286 287
f 287 289 291
f 291 268 269
f 269 272 276
f 276 285 287
f 287 291 269
f 316 315 317
f 317 318 320
f 320 322 324
f 324 326 328
f 328 330 332
f 332 334 336
f 336 316 317
f 317 320 324
f 324 328 332
f 332 336 317
